<mxfile host="app.diagrams.net" modified="2020-11-24T06:21:20.441Z" agent="5.0 (Macintosh; Intel Mac OS X 10_15_6) AppleWebKit/537.36 (KHTML, like Gecko) Chrome/87.0.4280.66 Safari/537.36" etag="W9cC1JqsdpsTwPu6oAxl" version="13.10.1" type="github">
  <diagram id="dr6B_hRamu5rVF0vxlY_" name="Page-1">
    <mxGraphModel dx="946" dy="614" grid="1" gridSize="10" guides="1" tooltips="1" connect="1" arrows="1" fold="1" page="1" pageScale="1" pageWidth="827" pageHeight="1169" math="0" shadow="0">
      <root>
        <mxCell id="0" />
        <mxCell id="1" parent="0" />
        <mxCell id="lmsBsxnmaazErU84A8Sw-1" value="PageNavigator&lt;br&gt;OpenURL()" style="rounded=1;whiteSpace=wrap;html=1;" vertex="1" parent="1">
          <mxGeometry x="320" y="40" width="120" height="40" as="geometry" />
        </mxCell>
        <mxCell id="lmsBsxnmaazErU84A8Sw-2" value="WebContents" style="rounded=1;whiteSpace=wrap;html=1;" vertex="1" parent="1">
          <mxGeometry x="320" y="140" width="120" height="60" as="geometry" />
        </mxCell>
        <mxCell id="lmsBsxnmaazErU84A8Sw-3" value="" style="endArrow=block;dashed=1;endFill=0;endSize=12;html=1;exitX=0.5;exitY=0;exitDx=0;exitDy=0;entryX=0.5;entryY=1;entryDx=0;entryDy=0;" edge="1" parent="1" source="lmsBsxnmaazErU84A8Sw-2" target="lmsBsxnmaazErU84A8Sw-1">
          <mxGeometry width="160" relative="1" as="geometry">
            <mxPoint x="430" y="320" as="sourcePoint" />
            <mxPoint x="590" y="320" as="targetPoint" />
          </mxGeometry>
        </mxCell>
        <mxCell id="lmsBsxnmaazErU84A8Sw-4" value="NavigationController" style="rounded=1;whiteSpace=wrap;html=1;" vertex="1" parent="1">
          <mxGeometry x="520" y="140" width="160" height="60" as="geometry" />
        </mxCell>
        <mxCell id="lmsBsxnmaazErU84A8Sw-5" value="NavigationControllerImpl" style="rounded=1;whiteSpace=wrap;html=1;" vertex="1" parent="1">
          <mxGeometry x="520" y="280" width="160" height="60" as="geometry" />
        </mxCell>
        <mxCell id="lmsBsxnmaazErU84A8Sw-6" value="&lt;font&gt;&lt;span style=&quot;font-size: 14px&quot;&gt;BackForwardCache&lt;/span&gt;&lt;br&gt;&lt;font style=&quot;font-size: 12px&quot; color=&quot;#333333&quot;&gt;保存frozen state状态的RenderFrameHostImpl&lt;/font&gt;&lt;br&gt;&lt;/font&gt;" style="rounded=1;whiteSpace=wrap;html=1;" vertex="1" parent="1">
          <mxGeometry x="760" y="280" width="160" height="60" as="geometry" />
        </mxCell>
        <mxCell id="lmsBsxnmaazErU84A8Sw-7" value="&lt;font style=&quot;font-size: 14px&quot;&gt;NavigationEntry&lt;/font&gt;&lt;br&gt;&lt;font color=&quot;#333333&quot;&gt;保存重建brwosing state的所有信息&lt;/font&gt;" style="rounded=1;whiteSpace=wrap;html=1;" vertex="1" parent="1">
          <mxGeometry x="760" y="140" width="160" height="60" as="geometry" />
        </mxCell>
        <mxCell id="lmsBsxnmaazErU84A8Sw-8" value="" style="endArrow=block;dashed=1;endFill=0;endSize=12;html=1;exitX=0.5;exitY=0;exitDx=0;exitDy=0;entryX=0.5;entryY=1;entryDx=0;entryDy=0;" edge="1" parent="1" source="lmsBsxnmaazErU84A8Sw-5" target="lmsBsxnmaazErU84A8Sw-4">
          <mxGeometry width="160" relative="1" as="geometry">
            <mxPoint x="390" y="150" as="sourcePoint" />
            <mxPoint x="390" y="90" as="targetPoint" />
          </mxGeometry>
        </mxCell>
        <mxCell id="lmsBsxnmaazErU84A8Sw-10" value="1" style="endArrow=open;html=1;endSize=12;startArrow=diamondThin;startSize=14;startFill=1;edgeStyle=orthogonalEdgeStyle;align=left;verticalAlign=bottom;entryX=0;entryY=0.5;entryDx=0;entryDy=0;" edge="1" parent="1" target="lmsBsxnmaazErU84A8Sw-6">
          <mxGeometry x="-1" y="3" relative="1" as="geometry">
            <mxPoint x="680" y="310" as="sourcePoint" />
            <mxPoint x="590" y="320" as="targetPoint" />
          </mxGeometry>
        </mxCell>
        <mxCell id="lmsBsxnmaazErU84A8Sw-11" value="1" style="endArrow=open;html=1;endSize=12;startArrow=diamondThin;startSize=14;startFill=1;edgeStyle=orthogonalEdgeStyle;align=left;verticalAlign=bottom;entryX=0;entryY=0.5;entryDx=0;entryDy=0;exitX=1;exitY=0.5;exitDx=0;exitDy=0;" edge="1" parent="1" source="lmsBsxnmaazErU84A8Sw-5" target="lmsBsxnmaazErU84A8Sw-7">
          <mxGeometry x="-1" y="3" relative="1" as="geometry">
            <mxPoint x="690" y="320" as="sourcePoint" />
            <mxPoint x="770" y="320" as="targetPoint" />
          </mxGeometry>
        </mxCell>
      </root>
    </mxGraphModel>
  </diagram>
</mxfile>
